<svg width="698" height="651" viewBox="0 0 698 651" fill="none" xmlns="http://www.w3.org/2000/svg">
<path fill-rule="evenodd" clip-rule="evenodd" d="M341.139 33.2424C265.436 9.54867 187.596 -29.9705 107.904 42.2119C28.2114 114.394 -21.8904 177.626 10.4639 259.439C42.8182 341.253 174.886 290.294 213.258 363.416C251.631 436.538 167.317 502.901 203.667 567.979C240.016 633.057 267.966 674.766 384.782 633.388C501.598 592.009 490.827 486.724 579.66 425.07C668.493 363.416 764.604 271.117 632.706 106.423C500.809 -58.2709 416.841 56.9361 341.139 33.2424Z" stroke="#96A9C6"/>
<path fill-rule="evenodd" clip-rule="evenodd" d="M350.605 71.1658C289.022 51.9261 225.7 19.8358 160.871 78.4492C96.0429 137.063 55.2857 188.408 81.6055 254.842C107.925 321.276 215.36 279.897 246.576 339.273C277.792 398.649 209.204 452.538 238.774 505.382C268.343 558.227 291.08 592.095 386.108 558.495C481.136 524.895 472.375 439.401 544.639 389.337C616.903 339.273 695.088 264.325 587.791 130.59C480.494 -3.14468 412.188 90.4055 350.605 71.1658Z" stroke="#96A9C6"/>
<path fill-rule="evenodd" clip-rule="evenodd" d="M368.312 96.3344C318.35 80.636 266.978 54.4523 214.383 102.277C161.789 150.102 128.723 191.997 150.076 246.203C171.429 300.409 258.59 266.646 283.914 315.093C309.239 363.541 253.595 407.511 277.584 450.629C301.574 493.746 320.02 521.381 397.115 493.965C474.21 466.55 467.102 396.792 525.729 355.943C584.356 315.093 647.787 253.94 560.738 144.821C473.689 35.7016 418.273 112.033 368.312 96.3344Z" stroke="#96A9C6"/>
<path fill-rule="evenodd" clip-rule="evenodd" d="M386.816 127.101C346.521 114.505 305.088 93.4976 262.669 131.869C220.25 170.24 193.582 203.853 210.804 247.344C228.025 290.835 298.322 263.746 318.747 302.617C339.172 341.487 294.294 376.765 313.642 411.36C332.99 445.955 347.867 468.127 410.046 446.13C472.225 424.134 466.492 368.165 513.776 335.391C561.06 302.617 612.218 253.552 542.012 166.003C471.805 78.4535 427.111 139.696 386.816 127.101Z" stroke="#96A9C6"/>
<path fill-rule="evenodd" clip-rule="evenodd" d="M391.583 146.963C358.673 136.668 324.834 119.496 290.19 150.86C255.547 182.225 233.766 209.7 247.832 245.249C261.897 280.798 319.309 258.656 335.99 290.428C352.672 322.2 316.019 351.037 331.821 379.314C347.623 407.591 359.773 425.714 410.555 407.735C461.337 389.755 456.655 344.007 495.273 317.218C533.89 290.428 575.671 250.323 518.333 178.761C460.994 107.199 424.492 157.258 391.583 146.963Z" stroke="#96A9C6"/>
<path fill-rule="evenodd" clip-rule="evenodd" d="M400.725 161.323C374.007 152.963 346.534 139.018 318.407 164.488C290.28 189.958 272.597 212.269 284.017 241.137C295.436 270.005 342.048 252.024 355.591 277.825C369.135 303.626 339.377 327.042 352.206 350.005C365.035 372.968 374.9 387.685 416.129 373.085C457.358 358.484 453.557 321.334 484.909 299.579C516.262 277.825 550.184 245.257 503.632 187.145C457.079 129.033 427.444 169.683 400.725 161.323Z" stroke="#96A9C6"/>
</svg>
