<svg width="699" height="651" viewBox="0 0 699 651" fill="none" xmlns="http://www.w3.org/2000/svg">
<path fill-rule="evenodd" clip-rule="evenodd" d="M357.446 617.46C433.148 641.154 510.989 680.673 590.681 608.491C670.373 536.308 720.475 473.077 688.121 391.263C655.766 309.45 523.699 360.408 485.326 287.287C446.954 214.165 531.267 147.801 494.918 82.7231C458.568 17.6452 430.618 -24.0639 313.803 17.3148C196.987 58.6934 207.757 163.979 118.925 225.633C30.0919 287.287 -66.0194 379.585 65.8784 544.279C197.776 708.973 281.743 593.766 357.446 617.46Z" stroke="#E4E4E4"/>
<path fill-rule="evenodd" clip-rule="evenodd" d="M347.98 579.537C409.563 598.776 472.885 630.867 537.713 572.253C602.542 513.64 643.299 462.295 616.979 395.861C590.659 329.427 483.224 370.806 452.009 311.43C420.793 252.054 489.381 198.165 459.811 145.32C430.241 92.4759 407.504 58.6074 312.476 92.2076C217.449 125.808 226.21 211.302 153.946 261.366C81.6816 311.43 3.49647 386.378 110.794 520.113C218.091 653.847 286.397 560.297 347.98 579.537Z" stroke="#E4E4E4"/>
<path fill-rule="evenodd" clip-rule="evenodd" d="M330.273 554.368C380.234 570.067 431.607 596.25 484.201 548.425C536.796 500.6 569.862 458.706 548.509 404.5C527.156 350.294 439.995 384.056 414.67 335.609C389.345 287.162 444.99 243.192 421 200.074C397.011 156.956 378.565 129.321 301.47 156.737C224.375 184.153 231.483 253.911 172.856 294.76C114.229 335.609 50.798 396.762 137.847 505.882C224.895 615.001 280.311 538.67 330.273 554.368Z" stroke="#E4E4E4"/>
<path fill-rule="evenodd" clip-rule="evenodd" d="M311.769 523.602C352.064 536.197 393.497 557.205 435.916 518.834C478.334 480.462 505.003 446.849 487.781 403.359C470.56 359.868 400.263 386.956 379.837 348.086C359.412 309.215 404.291 273.937 384.943 239.342C365.595 204.748 350.717 182.576 288.539 204.572C226.36 226.569 232.093 282.537 184.809 315.311C137.525 348.086 86.3665 397.151 156.573 484.7C226.78 572.249 271.474 511.007 311.769 523.602Z" stroke="#E4E4E4"/>
<path fill-rule="evenodd" clip-rule="evenodd" d="M307.002 503.74C339.912 514.035 373.75 531.207 408.394 499.842C443.038 468.478 464.818 441.003 450.753 405.454C436.688 369.905 379.276 392.047 362.594 360.274C345.913 328.502 382.566 299.666 366.764 271.389C350.962 243.111 338.812 224.988 288.03 242.968C237.247 260.947 241.93 306.695 203.312 333.485C164.695 360.274 122.913 400.38 180.252 471.942C237.59 543.504 274.093 493.444 307.002 503.74Z" stroke="#E4E4E4"/>
<path fill-rule="evenodd" clip-rule="evenodd" d="M297.859 489.379C324.578 497.74 352.051 511.684 380.178 486.215C408.304 460.745 425.987 438.434 414.568 409.566C403.149 380.698 356.537 398.679 342.994 372.878C329.45 347.077 359.208 323.66 346.379 300.697C333.549 277.734 323.685 263.017 282.456 277.618C241.227 292.218 245.028 329.368 213.675 351.123C182.323 372.878 148.401 405.445 194.953 463.558C241.505 521.67 271.141 481.019 297.859 489.379Z" stroke="#E4E4E4"/>
</svg>
